{
  "accessors": [
    {
      "bufferView": 2,
      "componentType": 5126,
      "count": 14428,
      "max": [
        -2.976078987121582,
        15.616495132446289,
        9.164589881896973
      ],
      "min": [
        -37.30028533935547,
        4.94347620010376,
        -30.096620559692383
      ],
      "type": "VEC3"
    },
    {
      "bufferView": 2,
      "byteOffset": 173136,
      "componentType": 5126,
      "count": 14428,
      "max": [
        0.9999256134033203,
        1.0,
        1.0
      ],
      "min": [
        -1.0,
        -1.0,
        -0.9990120530128479
      ],
      "type": "VEC3"
    },
    {
      "bufferView": 1,
      "componentType": 5126,
      "count": 14428,
      "max": [
        0.8750000596046448,
        1.0
      ],
      "min": [
        0.125,
        0.0005959097761660814
      ],
      "type": "VEC2"
    },
    {
      "bufferView": 0,
      "componentType": 5125,
      "count": 21000,
      "type": "SCALAR"
    },
    {
      "bufferView": 2,
      "byteOffset": 346272,
      "componentType": 5126,
      "count": 5786,
      "max": [
        10.890243530273438,
        14.900381088256836,
        3.8079421520233154
      ],
      "min": [
        -1.9712728261947632,
        -0.5724359750747681,
        -19.191242218017578
      ],
      "type": "VEC3"
    },
    {
      "bufferView": 2,
      "byteOffset": 415704,
      "componentType": 5126,
      "count": 5786,
      "max": [
        0.9999997019767761,
        1.0,
        0.9999968409538269
      ],
      "min": [
        -0.9999997019767761,
        -1.0,
        -0.9999968409538269
      ],
      "type": "VEC3"
    },
    {
      "bufferView": 1,
      "byteOffset": 115424,
      "componentType": 5126,
      "count": 5786,
      "max": [
        1.0,
        1.0
      ],
      "min": [
        0.0,
        0.000848164432682097
      ],
      "type": "VEC2"
    },
    {
      "bufferView": 0,
      "byteOffset": 84000,
      "componentType": 5125,
      "count": 8220,
      "type": "SCALAR"
    },
    {
      "bufferView": 2,
      "byteOffset": 485136,
      "componentType": 5126,
      "count": 480,
      "max": [
        12.805517196655273,
        2.171588659286499,
        21.97735595703125
      ],
      "min": [
        -11.49189567565918,
        -0.6276531219482422,
        12.584375381469727
      ],
      "type": "VEC3"
    },
    {
      "bufferView": 2,
      "byteOffset": 490896,
      "componentType": 5126,
      "count": 480,
      "max": [
        0.9848520159721375,
        0.9991948008537292,
        0.9962594509124756
      ],
      "min": [
        -0.9976620674133301,
        -0.9996907114982605,
        -0.9793943166732788
      ],
      "type": "VEC3"
    },
    {
      "bufferView": 0,
      "byteOffset": 116880,
      "componentType": 5125,
      "count": 480,
      "type": "SCALAR"
    },
    {
      "bufferView": 2,
      "byteOffset": 496656,
      "componentType": 5126,
      "count": 720,
      "max": [
        21.186874389648438,
        3.3088326454162598,
        31.4488525390625
      ],
      "min": [
        -14.336648941040039,
        -1.2978732585906982,
        2.1768951416015625
      ],
      "type": "VEC3"
    },
    {
      "bufferView": 2,
      "byteOffset": 505296,
      "componentType": 5126,
      "count": 720,
      "max": [
        0.9908996224403381,
        0.998682975769043,
        0.9873479008674622
      ],
      "min": [
        -0.9990139603614807,
        -0.9975836277008057,
        -0.9953244924545288
      ],
      "type": "VEC3"
    },
    {
      "bufferView": 0,
      "byteOffset": 118800,
      "componentType": 5125,
      "count": 720,
      "type": "SCALAR"
    },
    {
      "bufferView": 2,
      "byteOffset": 513936,
      "componentType": 5126,
      "count": 960,
      "max": [
        19.71038055419922,
        7.103067874908447,
        22.866113662719727
      ],
      "min": [
        -24.868730545043945,
        -0.30806875228881836,
        4.963077545166016
      ],
      "type": "VEC3"
    },
    {
      "bufferView": 2,
      "byteOffset": 525456,
      "componentType": 5126,
      "count": 960,
      "max": [
        0.9730780124664307,
        0.9884079694747925,
        0.9991101622581482
      ],
      "min": [
        -0.9891461730003357,
        -0.9999975562095642,
        -0.9812486171722412
      ],
      "type": "VEC3"
    },
    {
      "bufferView": 0,
      "byteOffset": 121680,
      "componentType": 5125,
      "count": 960,
      "type": "SCALAR"
    },
    {
      "bufferView": 2,
      "byteOffset": 536976,
      "componentType": 5126,
      "count": 2998,
      "max": [
        30.623924255371094,
        45.57063293457031,
        6.3211669921875
      ],
      "min": [
        -8.049345970153809,
        -4.347325325012207,
        -31.174840927124023
      ],
      "type": "VEC3"
    },
    {
      "bufferView": 2,
      "byteOffset": 572952,
      "componentType": 5126,
      "count": 2998,
      "max": [
        0.9976502656936646,
        0.9807782173156738,
        0.9958212971687317
      ],
      "min": [
        -0.9908089637756348,
        -1.0,
        -0.9998195171356201
      ],
      "type": "VEC3"
    },
    {
      "bufferView": 1,
      "byteOffset": 161712,
      "componentType": 5126,
      "count": 2998,
      "max": [
        0.8636354804039001,
        0.39365148544311523
      ],
      "min": [
        0.0,
        0.0
      ],
      "type": "VEC2"
    },
    {
      "bufferView": 0,
      "byteOffset": 125520,
      "componentType": 5125,
      "count": 3006,
      "type": "SCALAR"
    },
    {
      "bufferView": 2,
      "byteOffset": 608928,
      "componentType": 5126,
      "count": 1060,
      "max": [
        2.2862300872802734,
        34.78091812133789,
        11.931669235229492
      ],
      "min": [
        -30.108068466186523,
        -0.3788270950317383,
        -30.001991271972656
      ],
      "type": "VEC3"
    },
    {
      "bufferView": 2,
      "byteOffset": 621648,
      "componentType": 5126,
      "count": 1060,
      "max": [
        0.9999576807022095,
        0.9906978607177734,
        0.9567658305168152
      ],
      "min": [
        -0.9999393820762634,
        -1.0,
        -0.9833593964576721
      ],
      "type": "VEC3"
    },
    {
      "bufferView": 1,
      "byteOffset": 185696,
      "componentType": 5126,
      "count": 1060,
      "max": [
        0.8636354804039001,
        0.1968260109424591
      ],
      "min": [
        0.0,
        0.0
      ],
      "type": "VEC2"
    },
    {
      "bufferView": 0,
      "byteOffset": 137544,
      "componentType": 5125,
      "count": 1116,
      "type": "SCALAR"
    },
    {
      "bufferView": 2,
      "byteOffset": 634368,
      "componentType": 5126,
      "count": 985,
      "max": [
        30.796051025390625,
        20.91275405883789,
        12.781526565551758
      ],
      "min": [
        17.294708251953125,
        -1.5265347957611084,
        -3.1858575344085693
      ],
      "type": "VEC3"
    },
    {
      "bufferView": 2,
      "byteOffset": 646188,
      "componentType": 5126,
      "count": 985,
      "max": [
        0.9619396924972534,
        0.9927570819854736,
        0.9860248565673828
      ],
      "min": [
        -0.9993891716003418,
        -0.900976300239563,
        -0.9983810186386108
      ],
      "type": "VEC3"
    },
    {
      "bufferView": 1,
      "byteOffset": 194176,
      "componentType": 5126,
      "count": 985,
      "max": [
        0.0,
        0.0
      ],
      "min": [
        0.0,
        0.0
      ],
      "type": "VEC2"
    },
    {
      "bufferView": 0,
      "byteOffset": 142008,
      "componentType": 5125,
      "count": 990,
      "type": "SCALAR"
    },
    {
      "bufferView": 2,
      "byteOffset": 658008,
      "componentType": 5126,
      "count": 1696,
      "max": [
        30.98347282409668,
        1.1229016780853271,
        30.98343849182129
      ],
      "min": [
        -30.983415603637695,
        -0.7942993640899658,
        -30.98345184326172
      ],
      "type": "VEC3"
    },
    {
      "bufferView": 2,
      "byteOffset": 678360,
      "componentType": 5126,
      "count": 1696,
      "max": [
        0.9925732612609863,
        1.0,
        0.9925169348716736
      ],
      "min": [
        -0.9918298125267029,
        -1.0,
        -0.992599368095398
      ],
      "type": "VEC3"
    },
    {
      "bufferView": 1,
      "byteOffset": 202056,
      "componentType": 5126,
      "count": 1696,
      "max": [
        0.8750000596046448,
        1.0
      ],
      "min": [
        0.125,
        0.0
      ],
      "type": "VEC2"
    },
    {
      "bufferView": 0,
      "byteOffset": 145968,
      "componentType": 5125,
      "count": 8004,
      "type": "SCALAR"
    },
    {
      "bufferView": 2,
      "byteOffset": 698712,
      "componentType": 5126,
      "count": 1561,
      "max": [
        30.698135375976563,
        7.411173343658447,
        30.778785705566406
      ],
      "min": [
        -30.739727020263672,
        -0.335019588470459,
        -30.659740447998047
      ],
      "type": "VEC3"
    },
    {
      "bufferView": 2,
      "byteOffset": 717444,
      "componentType": 5126,
      "count": 1561,
      "max": [
        0.9920322895050049,
        1.0,
        0.9918842911720276
      ],
      "min": [
        -0.9921212792396545,
        -1.0,
        -0.9920247197151184
      ],
      "type": "VEC3"
    },
    {
      "bufferView": 1,
      "byteOffset": 215624,
      "componentType": 5126,
      "count": 1561,
      "max": [
        1.0,
        1.0000001192092896
      ],
      "min": [
        0.0,
        0.0
      ],
      "type": "VEC2"
    },
    {
      "bufferView": 0,
      "byteOffset": 177984,
      "componentType": 5125,
      "count": 8004,
      "type": "SCALAR"
    },
    {
      "bufferView": 3,
      "componentType": 5126,
      "count": 360,
      "max": [
        15.0
      ],
      "min": [
        0.0416666679084301
      ],
      "type": "SCALAR"
    },
    {
      "bufferView": 5,
      "componentType": 5126,
      "count": 360,
      "max": [
        0.0,
        0.9999936819076538,
        -0.0,
        0.9999997019767761
      ],
      "min": [
        0.0,
        -0.9999042749404907,
        -0.0,
        -0.005138927139341831
      ],
      "type": "VEC4"
    },
    {
      "bufferView": 3,
      "byteOffset": 1440,
      "componentType": 5126,
      "count": 127,
      "max": [
        15.0
      ],
      "min": [
        0.0416666679084301
      ],
      "type": "SCALAR"
    },
    {
      "bufferView": 4,
      "componentType": 5126,
      "count": 127,
      "max": [
        10.751021385192871,
        10.751019477844238,
        10.751021385192871
      ],
      "min": [
        10.751019477844238,
        10.751019477844238,
        10.751019477844238
      ],
      "type": "VEC3"
    },
    {
      "bufferView": 3,
      "byteOffset": 1948,
      "componentType": 5126,
      "count": 361,
      "max": [
        15.041666984558105
      ],
      "min": [
        0.0416666679084301
      ],
      "type": "SCALAR"
    },
    {
      "bufferView": 5,
      "byteOffset": 5760,
      "componentType": 5126,
      "count": 361,
      "max": [
        0.0,
        0.9999936819076538,
        -0.0,
        0.9999997019767761
      ],
      "min": [
        0.0,
        -0.999904215335846,
        -0.0,
        -0.005138926673680544
      ],
      "type": "VEC4"
    }
  ],
  "animations": [
    {
      "channels": [
        {
          "sampler": 0,
          "target": {
            "node": 3,
            "path": "rotation"
          }
        },
        {
          "sampler": 1,
          "target": {
            "node": 3,
            "path": "scale"
          }
        }
      ],
      "name": "Action",
      "samplers": [
        {
          "input": 37,
          "interpolation": "LINEAR",
          "output": 38
        },
        {
          "input": 39,
          "interpolation": "LINEAR",
          "output": 40
        }
      ]
    },
    {
      "channels": [
        {
          "sampler": 0,
          "target": {
            "node": 3,
            "path": "rotation"
          }
        }
      ],
      "name": "EmptyAction.001",
      "samplers": [
        {
          "input": 41,
          "interpolation": "LINEAR",
          "output": 42
        }
      ]
    }
  ],
  "asset": {
    "extras": {
      "author": "NauxFox (https://sketchfab.com/nauxfox)",
      "license": "CC-BY-4.0 (http://creativecommons.org/licenses/by/4.0/)",
      "source": "https://sketchfab.com/3d-models/lowpoly-mountain-bridge-6414bb255a75442daa89547479cb6309",
      "title": "Lowpoly mountain bridge"
    },
    "generator": "Sketchfab-12.65.0",
    "version": "2.0"
  },
  "bufferViews": [
    {
      "buffer": 0,
      "byteLength": 210000,
      "name": "floatBufferViews",
      "target": 34963
    },
    {
      "buffer": 0,
      "byteLength": 228112,
      "byteOffset": 210000,
      "byteStride": 8,
      "name": "floatBufferViews",
      "target": 34962
    },
    {
      "buffer": 0,
      "byteLength": 736176,
      "byteOffset": 438112,
      "byteStride": 12,
      "name": "floatBufferViews",
      "target": 34962
    },
    {
      "buffer": 0,
      "byteLength": 3392,
      "byteOffset": 1174288,
      "name": "floatBufferViews"
    },
    {
      "buffer": 0,
      "byteLength": 1524,
      "byteOffset": 1177680,
      "byteStride": 12,
      "name": "floatBufferViews"
    },
    {
      "buffer": 0,
      "byteLength": 11536,
      "byteOffset": 1179204,
      "byteStride": 16,
      "name": "floatBufferViews"
    }
  ],
  "buffers": [
    {
      "byteLength": 1190740,
      "uri": "scene.bin"
    }
  ],
  "images": [
    {
      "uri": "textures/sand_baseColor.png"
    },
    {
      "uri": "textures/sand_metallicRoughness.png"
    },
    {
      "uri": "textures/water_baseColor.png"
    },
    {
      "uri": "textures/water_metallicRoughness.png"
    }
  ],
  "materials": [
    {
      "doubleSided": true,
      "name": "wood_boards",
      "pbrMetallicRoughness": {
        "baseColorFactor": [
          0.26668,
          0.0663916,
          0.0192015,
          1.0
        ],
        "metallicFactor": 0.0,
        "roughnessFactor": 0.5
      }
    },
    {
      "doubleSided": true,
      "name": "wood_posts",
      "pbrMetallicRoughness": {
        "baseColorFactor": [
          0.124089,
          0.0147417,
          0.0108528,
          1.0
        ],
        "metallicFactor": 0.0,
        "roughnessFactor": 0.836364
      }
    },
    {
      "doubleSided": true,
      "name": "rock1",
      "pbrMetallicRoughness": {
        "baseColorFactor": [
          0.117614,
          0.117614,
          0.117614,
          1.0
        ],
        "metallicFactor": 0.0,
        "roughnessFactor": 0.577273
      }
    },
    {
      "doubleSided": true,
      "name": "rock2",
      "pbrMetallicRoughness": {
        "baseColorFactor": [
          0.26668,
          0.26668,
          0.26668,
          1.0
        ],
        "metallicFactor": 0.0,
        "roughnessFactor": 0.759091
      }
    },
    {
      "doubleSided": true,
      "name": "rock3",
      "pbrMetallicRoughness": {
        "baseColorFactor": [
          0.4683452712480695,
          0.4683452712480695,
          0.4683452712480695,
          1.0
        ],
        "metallicFactor": 0.0,
        "roughnessFactor": 0.5
      }
    },
    {
      "alphaMode": "BLEND",
      "doubleSided": true,
      "name": "sand",
      "pbrMetallicRoughness": {
        "baseColorFactor": [
          0.3226940490067237,
          0.24823067050855832,
          0.1589626122028078,
          1.0
        ],
        "baseColorTexture": {
          "index": 0
        },
        "metallicFactor": 0.0,
        "metallicRoughnessTexture": {
          "index": 1
        }
      }
    },
    {
      "alphaMode": "BLEND",
      "doubleSided": true,
      "name": "water",
      "pbrMetallicRoughness": {
        "baseColorFactor": [
          0.037303445473052976,
          0.4674341688132745,
          0.6311795399884621,
          0.4881446777979108
        ],
        "baseColorTexture": {
          "index": 2
        },
        "metallicFactor": 0.0,
        "metallicRoughnessTexture": {
          "index": 3
        }
      }
    }
  ],
  "meshes": [
    {
      "name": "Object_0",
      "primitives": [
        {
          "attributes": {
            "NORMAL": 1,
            "POSITION": 0,
            "TEXCOORD_0": 2
          },
          "indices": 3,
          "material": 0,
          "mode": 4
        }
      ]
    },
    {
      "name": "Object_1",
      "primitives": [
        {
          "attributes": {
            "NORMAL": 5,
            "POSITION": 4,
            "TEXCOORD_0": 6
          },
          "indices": 7,
          "material": 1,
          "mode": 4
        }
      ]
    },
    {
      "name": "Object_2",
      "primitives": [
        {
          "attributes": {
            "NORMAL": 9,
            "POSITION": 8
          },
          "indices": 10,
          "material": 2,
          "mode": 4
        }
      ]
    },
    {
      "name": "Object_3",
      "primitives": [
        {
          "attributes": {
            "NORMAL": 12,
            "POSITION": 11
          },
          "indices": 13,
          "material": 3,
          "mode": 4
        }
      ]
    },
    {
      "name": "Object_4",
      "primitives": [
        {
          "attributes": {
            "NORMAL": 15,
            "POSITION": 14
          },
          "indices": 16,
          "material": 4,
          "mode": 4
        }
      ]
    },
    {
      "name": "Object_5",
      "primitives": [
        {
          "attributes": {
            "NORMAL": 18,
            "POSITION": 17,
            "TEXCOORD_0": 19
          },
          "indices": 20,
          "material": 2,
          "mode": 4
        }
      ]
    },
    {
      "name": "Object_6",
      "primitives": [
        {
          "attributes": {
            "NORMAL": 22,
            "POSITION": 21,
            "TEXCOORD_0": 23
          },
          "indices": 24,
          "material": 3,
          "mode": 4
        }
      ]
    },
    {
      "name": "Object_7",
      "primitives": [
        {
          "attributes": {
            "NORMAL": 26,
            "POSITION": 25,
            "TEXCOORD_0": 27
          },
          "indices": 28,
          "material": 3,
          "mode": 4
        }
      ]
    },
    {
      "name": "Object_8",
      "primitives": [
        {
          "attributes": {
            "NORMAL": 30,
            "POSITION": 29,
            "TEXCOORD_0": 31
          },
          "indices": 32,
          "material": 5,
          "mode": 4
        }
      ]
    },
    {
      "name": "Object_9",
      "primitives": [
        {
          "attributes": {
            "NORMAL": 34,
            "POSITION": 33,
            "TEXCOORD_0": 35
          },
          "indices": 36,
          "material": 6,
          "mode": 4
        }
      ]
    }
  ],
  "nodes": [
    {
      "children": [
        1
      ],
      "matrix": [
        1.0,
        0.0,
        0.0,
        0.0,
        0.0,
        2.220446049250313e-16,
        -1.0,
        0.0,
        0.0,
        1.0,
        2.220446049250313e-16,
        0.0,
        0.0,
        0.0,
        0.0,
        1.0
      ],
      "name": "Sketchfab_model"
    },
    {
      "children": [
        2
      ],
      "name": "root"
    },
    {
      "children": [
        3
      ],
      "matrix": [
        1.0,
        0.0,
        0.0,
        0.0,
        0.0,
        2.220446049250313e-16,
        1.0,
        0.0,
        0.0,
        -1.0,
        2.220446049250313e-16,
        0.0,
        0.0,
        0.0,
        0.0,
        1.0
      ],
      "name": "GLTF_SceneRootNode"
    },
    {
      "children": [
        4,
        6,
        8,
        12,
        14,
        16,
        18,
        20
      ],
      "name": "Empty_8",
      "rotation": [
        0.0,
        0.2756373882293701,
        0.0,
        0.9612616896629333
      ],
      "scale": [
        10.751019477844238,
        10.751019477844238,
        10.751019477844238
      ],
      "translation": [
        0.0,
        -2.5646848678588867,
        0.0
      ]
    },
    {
      "children": [
        5
      ],
      "matrix": [
        -0.007216327094375503,
        -0.013747492649732003,
        0.03819657793156829,
        0.0,
        -0.00398133897945736,
        0.038848028798879476,
        0.013229780608230343,
        0.0,
        -0.04039952171366294,
        -0.001372807778739358,
        -0.008126613555432892,
        0.0,
        0.0,
        0.0,
        0.0,
        1.0
      ],
      "name": "boards_0"
    },
    {
      "mesh": 0,
      "name": "Object_5"
    },
    {
      "children": [
        7
      ],
      "matrix": [
        0.11664145941359269,
        0.0,
        -0.007506575677861776,
        0.0,
        0.0,
        0.09341280162334442,
        0.0,
        0.0,
        0.004298650531130859,
        0.0,
        0.06679488664036771,
        0.0,
        0.0,
        0.0,
        0.0,
        1.0
      ],
      "name": "bridgee_1"
    },
    {
      "mesh": 1,
      "name": "Object_7"
    },
    {
      "children": [
        9,
        10,
        11
      ],
      "matrix": [
        0.04070571684285489,
        0.0,
        0.006564481706788101,
        0.0,
        -0.0,
        0.041231635957956314,
        0.0,
        0.0,
        -0.006564481706788101,
        -0.0,
        0.04070571684285489,
        0.0,
        0.0,
        0.0,
        0.0,
        1.0
      ],
      "name": "extra rocks_2"
    },
    {
      "mesh": 2,
      "name": "Object_9"
    },
    {
      "mesh": 3,
      "name": "Object_10"
    },
    {
      "mesh": 4,
      "name": "Object_11"
    },
    {
      "children": [
        13
      ],
      "matrix": [
        0.041231632232666016,
        0.0,
        0.0,
        0.0,
        0.0,
        0.041231635957956314,
        0.0,
        0.0,
        0.0,
        0.0,
        0.041231632232666016,
        0.0,
        0.0,
        0.0,
        0.0,
        1.0
      ],
      "name": "mountain1_3"
    },
    {
      "mesh": 5,
      "name": "Object_13"
    },
    {
      "children": [
        15
      ],
      "matrix": [
        0.041231632232666016,
        0.0,
        0.0,
        0.0,
        0.0,
        0.041231635957956314,
        0.0,
        0.0,
        0.0,
        0.0,
        0.041231632232666016,
        0.0,
        0.0,
        0.0,
        0.0,
        1.0
      ],
      "name": "mountain1.001_4"
    },
    {
      "mesh": 6,
      "name": "Object_15"
    },
    {
      "children": [
        17
      ],
      "matrix": [
        0.041231632232666016,
        0.0,
        0.0,
        0.0,
        0.0,
        0.041231635957956314,
        0.0,
        0.0,
        0.0,
        0.0,
        0.041231632232666016,
        0.0,
        0.0,
        0.0,
        0.0,
        1.0
      ],
      "name": "mountain1.002_5"
    },
    {
      "mesh": 7,
      "name": "Object_17"
    },
    {
      "children": [
        19
      ],
      "matrix": [
        0.041231632232666016,
        0.0,
        0.0,
        0.0,
        0.0,
        0.041231635957956314,
        0.0,
        0.0,
        0.0,
        0.0,
        0.041231632232666016,
        0.0,
        0.0,
        0.0,
        0.0,
        1.0
      ],
      "name": "sand_6"
    },
    {
      "mesh": 8,
      "name": "Object_19"
    },
    {
      "children": [
        21
      ],
      "matrix": [
        0.041231632232666016,
        0.0,
        0.0,
        0.0,
        0.0,
        0.05536939203739166,
        0.0,
        0.0,
        0.0,
        0.0,
        0.041231632232666016,
        0.0,
        0.0,
        0.0,
        0.0,
        1.0
      ],
      "name": "water_7"
    },
    {
      "mesh": 9,
      "name": "Object_21"
    }
  ],
  "samplers": [
    {
      "magFilter": 9729,
      "minFilter": 9987,
      "wrapS": 10497,
      "wrapT": 10497
    }
  ],
  "scene": 0,
  "scenes": [
    {
      "name": "Sketchfab_Scene",
      "nodes": [
        0
      ]
    }
  ],
  "textures": [
    {
      "sampler": 0,
      "source": 0
    },
    {
      "sampler": 0,
      "source": 1
    },
    {
      "sampler": 0,
      "source": 2
    },
    {
      "sampler": 0,
      "source": 3
    }
  ]
}
